<svg width="196" height="96" viewBox="0 0 196 96" fill="none" xmlns="http://www.w3.org/2000/svg">
<path d="M22.4756 35.0094L20.3662 6.63833C19.9092 11.4196 19.0654 15.8844 17.835 20.0329C16.6045 24.1637 15.207 27.3629 13.6426 29.6305C12.0781 31.8805 10.4785 33.4625 8.84375 34.3766C7.20898 35.2907 5.5918 35.7477 3.99219 35.7477C3.02539 35.7477 2.27832 35.5456 1.75098 35.1413C1.24121 34.7545 0.986328 34.2799 0.986328 33.7174C0.986328 33.2428 1.1709 32.8297 1.54004 32.4782C1.92676 32.1266 2.41016 31.9508 2.99023 31.9508C3.41211 31.9508 4.01855 32.0475 4.80957 32.2409C5.53027 32.4342 6.12793 32.5309 6.60254 32.5309C7.42871 32.5309 8.29004 32.2233 9.18652 31.6081C10.54 30.694 11.876 29.0592 13.1943 26.7038C14.5303 24.3307 15.7168 21.0348 16.7539 16.8161C17.8086 12.5797 18.4678 8.44888 18.7314 4.42348C14.7412 4.42348 11.498 5.41665 9.00195 7.40298C7.01562 8.98501 6.02246 10.7516 6.02246 12.7028C6.02246 13.5641 6.49707 14.6012 7.44629 15.8141C7.95605 16.4645 8.21094 16.9918 8.21094 17.3961C8.21094 17.8532 8.06152 18.2311 7.7627 18.5299C7.48145 18.8288 7.13867 18.9782 6.73438 18.9782C6.04883 18.9782 5.44238 18.5915 4.91504 17.818C4.19434 16.7809 3.83398 15.5504 3.83398 14.1266C3.83398 12.1227 4.50195 10.2067 5.83789 8.37856C7.19141 6.53286 9.05469 5.1354 11.4277 4.18618C13.8184 3.21938 16.6133 2.7272 19.8125 2.70962C21.5352 2.70962 22.915 2.55141 23.9521 2.23501C23.8994 3.81704 23.873 4.66958 23.873 4.79263C23.873 4.95083 23.8994 5.31118 23.9521 5.87368L25.5078 25.9127C29.7441 18.5124 33.8838 12.4215 37.9268 7.64028C40.792 4.2477 43.2881 1.95376 45.415 0.758446C44.2021 4.09829 42.9014 8.50161 41.5127 13.9684L38.2959 26.6247C38.1201 27.3278 37.8828 28.3561 37.584 29.7096L36.9512 32.5309C38.2871 32.8473 39.5088 33.0055 40.6162 33.0055C41.5127 33.0055 42.4707 32.9 43.4902 32.6891L43.1475 34.2184C42.251 34.3766 41.5566 34.4557 41.0645 34.4557C40.3438 34.4557 39.3066 34.3766 37.9531 34.2184C36.8457 34.0778 35.8613 34.0075 35 34.0075C34.0859 34.0075 33.0488 34.1833 31.8887 34.5348C32.8555 32.0036 33.8662 28.6022 34.9209 24.3307L36.9512 16.2624C37.8125 12.7819 38.5596 10.3913 39.1924 9.09048C37.7861 10.6901 35.6152 13.6256 32.6797 17.8971C30.3242 21.3424 27.6875 25.7018 24.7695 30.9752L22.4756 35.0094ZM65.5068 11.279L67.2471 10.9098L65.2695 17.5807C64.4785 20.235 63.7314 23.2936 63.0283 26.7565C62.6416 28.6374 62.4482 29.8502 62.4482 30.3952C62.4482 30.9401 62.668 31.2125 63.1074 31.2125C63.3887 31.2125 63.8369 31.028 64.4521 30.6588C65.542 30.0084 66.5879 29.1999 67.5898 28.2331L68.4336 29.2614C66.4297 31.0895 65.1465 32.1969 64.584 32.5836C63.459 33.3571 62.3867 33.9284 61.3672 34.2975C60.6992 34.5436 60.0488 34.6666 59.416 34.6666C58.959 34.6666 58.6162 34.5612 58.3877 34.3502C58.1592 34.1393 58.0449 33.8317 58.0449 33.4274C58.0449 33.1637 58.1152 32.8034 58.2559 32.3463L59.3105 28.7604C57.7988 30.5709 55.9971 32.1266 53.9053 33.4274C52.6221 34.236 51.4443 34.6403 50.3721 34.6403C49.3525 34.6403 48.5703 34.2799 48.0254 33.5592C47.2871 32.5924 46.918 31.3268 46.918 29.7624C46.918 27.8991 47.4102 25.8249 48.3945 23.5397C49.3965 21.2545 50.7324 19.1803 52.4023 17.317C54.0723 15.4538 55.8301 14.0827 57.6758 13.2038C59.0996 12.5358 60.9277 12.2018 63.1602 12.2018C63.7227 12.2018 64.2939 12.237 64.874 12.3073L65.5068 11.279ZM62.2373 15.3131C61.2881 15.1198 60.4883 15.0231 59.8379 15.0231C58.2559 15.0231 56.876 15.4625 55.6982 16.3415C54.5205 17.2028 53.4219 18.7672 52.4023 21.0348C51.4004 23.2848 50.8994 25.5348 50.8994 27.7848C50.8994 28.9801 51.1016 29.8415 51.5059 30.3688C51.9102 30.8961 52.4375 31.1598 53.0879 31.1598C54.3008 31.1598 55.6016 30.5094 56.9902 29.2086C58.3789 27.8903 59.3984 26.0006 60.0488 23.5397L62.2373 15.3131ZM84.6758 28.1803L85.2295 29.7096C81.0459 32.9967 77.5127 34.6403 74.6299 34.6403C73.1006 34.6403 71.9844 34.0954 71.2812 33.0055C70.5957 31.9157 70.2529 30.5358 70.2529 28.8659C70.2529 26.0885 70.9912 23.2321 72.4678 20.2965C73.9443 17.361 75.7373 15.111 77.8467 13.5465C79.499 12.3336 81.3623 11.7272 83.4365 11.7272C84.7373 11.7272 85.7217 11.9733 86.3896 12.4655C87.0576 12.9577 87.3916 13.5553 87.3916 14.2584C87.3916 14.8034 87.2158 15.2516 86.8643 15.6032C86.5127 15.9372 86.0205 16.1041 85.3877 16.1041C84.7725 16.1041 83.9814 15.8229 83.0146 15.2604C82.0127 14.6627 81.1777 14.3639 80.5098 14.3639C79.6484 14.3639 78.7871 14.7594 77.9258 15.5504C77.082 16.3239 76.2734 17.8356 75.5 20.0856C74.7266 22.3356 74.3398 24.5944 74.3398 26.862C74.3398 28.5319 74.665 29.8239 75.3154 30.7379C75.79 31.4411 76.458 31.7926 77.3193 31.7926C79.376 31.7926 81.8281 30.5885 84.6758 28.1803ZM103.027 28.1803L103.581 29.7096C99.3975 32.9967 95.8643 34.6403 92.9814 34.6403C91.4521 34.6403 90.3359 34.0954 89.6328 33.0055C88.9473 31.9157 88.6045 30.5358 88.6045 28.8659C88.6045 26.0885 89.3428 23.2321 90.8193 20.2965C92.2959 17.361 94.0889 15.111 96.1982 13.5465C97.8506 12.3336 99.7139 11.7272 101.788 11.7272C103.089 11.7272 104.073 11.9733 104.741 12.4655C105.409 12.9577 105.743 13.5553 105.743 14.2584C105.743 14.8034 105.567 15.2516 105.216 15.6032C104.864 15.9372 104.372 16.1041 103.739 16.1041C103.124 16.1041 102.333 15.8229 101.366 15.2604C100.364 14.6627 99.5293 14.3639 98.8613 14.3639C98 14.3639 97.1387 14.7594 96.2773 15.5504C95.4336 16.3239 94.625 17.8356 93.8516 20.0856C93.0781 22.3356 92.6914 24.5944 92.6914 26.862C92.6914 28.5319 93.0166 29.8239 93.667 30.7379C94.1416 31.4411 94.8096 31.7926 95.6709 31.7926C97.7275 31.7926 100.18 30.5885 103.027 28.1803Z" fill="#E2342D"/>
<path d="M32.1787 69.6159H30.7812C30.9219 68.7194 30.9922 68.0075 30.9922 67.4801C30.9922 66.777 30.6934 66.32 30.0957 66.109C29.5156 65.8805 27.3008 65.7663 23.4512 65.7663L19.6016 65.7926L16.6748 77.4469H22.1328C23.8555 77.4469 24.9102 77.3239 25.2969 77.0778C25.7012 76.8141 25.9912 76.1725 26.167 75.153H27.6699C27.1074 77.2799 26.6064 79.6178 26.167 82.1666H24.8223C24.9102 81.3405 24.9541 80.6989 24.9541 80.2418C24.9541 80.0485 24.8311 79.8112 24.585 79.5299C24.4619 79.3893 24.2334 79.2926 23.8994 79.2399C23.4248 79.152 22.6865 79.1081 21.6846 79.1081H16.2793C14.7148 85.0846 13.0889 89.7692 11.4014 93.1618C13.0361 92.652 14.4863 92.3971 15.752 92.3971C17.8613 92.3971 20.4453 92.7311 23.5039 93.3991C25.1211 93.7682 26.2197 93.9528 26.7998 93.9528C27.5732 93.9528 28.1973 93.7594 28.6719 93.3727C29.1465 92.986 29.3838 92.5465 29.3838 92.0543C29.3838 91.7731 29.2695 91.3161 29.041 90.6833C28.9004 90.2438 28.8301 89.8307 28.8301 89.444C28.8301 89.0397 28.9883 88.6793 29.3047 88.3629C29.6387 88.0465 30.0342 87.8883 30.4912 87.8883C31.0361 87.8883 31.4844 88.0993 31.8359 88.5211C32.2051 88.943 32.3896 89.5055 32.3896 90.2086C32.3896 91.7028 31.7305 93.0124 30.4121 94.1374C29.1113 95.2624 27.3887 95.8249 25.2441 95.8249C24.1191 95.8249 22.6953 95.7282 20.9727 95.5348C17.1934 95.1129 14.3105 94.902 12.3242 94.902C9.72266 94.902 6.68164 95.1129 3.20117 95.5348L3.62305 94.0846C5.69727 93.5045 6.91895 93.0827 7.28809 92.819C7.65723 92.5377 7.96484 92.1334 8.21094 91.6061C9.05469 89.9362 10.1445 86.5875 11.4805 81.5602C12.834 76.5329 14.2051 71.2243 15.5938 65.6344C13.4844 65.6344 11.4893 66.1354 9.6084 67.1374C7.72754 68.1393 6.25977 69.4489 5.20508 71.0661C4.15039 72.6657 3.62305 74.3532 3.62305 76.1286C3.62305 76.8844 3.69336 77.5436 3.83398 78.1061C3.99219 78.6686 4.33496 79.4596 4.8623 80.4791C5.19629 81.0944 5.36328 81.5954 5.36328 81.9821C5.36328 82.3688 5.19629 82.7116 4.8623 83.0104C4.5459 83.3092 4.15039 83.4586 3.67578 83.4586C2.99023 83.4586 2.44531 83.1159 2.04102 82.4303C1.44336 81.4284 1.14453 80.0661 1.14453 78.3434C1.14453 74.652 2.54199 71.3385 5.33691 68.403C8.13184 65.4674 12.2012 63.9997 17.5449 63.9997H26.5889C29.7178 63.9997 32.0293 63.7975 33.5234 63.3932C32.8203 66.3112 32.3721 68.3854 32.1787 69.6159ZM47.2344 72.7008C48.7988 72.7008 50.0029 73.0084 50.8467 73.6237C51.708 74.2213 52.1387 74.9157 52.1387 75.7067C52.1387 76.1813 51.9541 76.5944 51.585 76.9459C51.2334 77.2975 50.8027 77.4733 50.293 77.4733C49.959 77.4733 49.6689 77.403 49.4229 77.2624C49.1768 77.1041 48.8252 76.7262 48.3682 76.1286C47.5068 74.986 46.6543 74.4147 45.8105 74.4147C45.0898 74.4147 44.4482 74.6959 43.8857 75.2584C43.3408 75.8034 43.0684 76.4889 43.0684 77.3151C43.0684 78.0358 43.2441 78.7389 43.5957 79.4245C43.9473 80.0924 44.835 81.1823 46.2588 82.694C48.21 84.7682 49.1855 86.737 49.1855 88.6002C49.1855 90.4635 48.3945 92.0983 46.8125 93.5045C45.2305 94.8932 43.1914 95.5875 40.6953 95.5875C38.6035 95.5875 37.0479 95.1657 36.0283 94.3219C35.0088 93.4606 34.499 92.4059 34.499 91.1579C34.499 90.5426 34.6924 90.0329 35.0791 89.6286C35.4658 89.2243 35.9404 89.0221 36.5029 89.0221C36.9951 89.0221 37.417 89.1891 37.7686 89.5231C38.1201 89.8395 38.2959 90.2174 38.2959 90.6569C38.2959 90.8327 38.2783 91.0612 38.2432 91.3424C38.2256 91.5709 38.2168 91.7643 38.2168 91.9225C38.2168 92.5026 38.4629 92.9948 38.9551 93.3991C39.4297 93.8034 40.0801 94.0055 40.9062 94.0055C41.8555 94.0055 42.6904 93.8473 43.4111 93.5309C44.1318 93.1969 44.6943 92.7047 45.0986 92.0543C45.5029 91.3864 45.7051 90.7272 45.7051 90.0768C45.7051 89.444 45.5117 88.8112 45.125 88.1784C44.7559 87.5456 43.9121 86.4997 42.5938 85.0407C40.7656 83.0016 39.8516 81.0416 39.8516 79.1608C39.8516 77.4381 40.5459 75.9352 41.9346 74.652C43.3232 73.3512 45.0898 72.7008 47.2344 72.7008ZM64.5312 72.7008C66.0957 72.7008 67.2998 73.0084 68.1436 73.6237C69.0049 74.2213 69.4355 74.9157 69.4355 75.7067C69.4355 76.1813 69.251 76.5944 68.8818 76.9459C68.5303 77.2975 68.0996 77.4733 67.5898 77.4733C67.2559 77.4733 66.9658 77.403 66.7197 77.2624C66.4736 77.1041 66.1221 76.7262 65.665 76.1286C64.8037 74.986 63.9512 74.4147 63.1074 74.4147C62.3867 74.4147 61.7451 74.6959 61.1826 75.2584C60.6377 75.8034 60.3652 76.4889 60.3652 77.3151C60.3652 78.0358 60.541 78.7389 60.8926 79.4245C61.2441 80.0924 62.1318 81.1823 63.5557 82.694C65.5068 84.7682 66.4824 86.737 66.4824 88.6002C66.4824 90.4635 65.6914 92.0983 64.1094 93.5045C62.5273 94.8932 60.4883 95.5875 57.9922 95.5875C55.9004 95.5875 54.3447 95.1657 53.3252 94.3219C52.3057 93.4606 51.7959 92.4059 51.7959 91.1579C51.7959 90.5426 51.9893 90.0329 52.376 89.6286C52.7627 89.2243 53.2373 89.0221 53.7998 89.0221C54.292 89.0221 54.7139 89.1891 55.0654 89.5231C55.417 89.8395 55.5928 90.2174 55.5928 90.6569C55.5928 90.8327 55.5752 91.0612 55.54 91.3424C55.5225 91.5709 55.5137 91.7643 55.5137 91.9225C55.5137 92.5026 55.7598 92.9948 56.252 93.3991C56.7266 93.8034 57.377 94.0055 58.2031 94.0055C59.1523 94.0055 59.9873 93.8473 60.708 93.5309C61.4287 93.1969 61.9912 92.7047 62.3955 92.0543C62.7998 91.3864 63.002 90.7272 63.002 90.0768C63.002 89.444 62.8086 88.8112 62.4219 88.1784C62.0527 87.5456 61.209 86.4997 59.8906 85.0407C58.0625 83.0016 57.1484 81.0416 57.1484 79.1608C57.1484 77.4381 57.8428 75.9352 59.2314 74.652C60.6201 73.3512 62.3867 72.7008 64.5312 72.7008ZM84.0693 88.2838L84.9395 89.444C80.6328 93.5397 76.9414 95.5875 73.8652 95.5875C72.6172 95.5875 71.6592 95.1657 70.9912 94.3219C70.3408 93.4782 70.0156 92.1247 70.0156 90.2614C70.0156 86.4997 71.1582 82.7555 73.4434 79.029C76.0098 74.7926 79.0771 72.6745 82.6455 72.6745C83.8936 72.6745 84.8428 72.9909 85.4932 73.6237C86.1611 74.2389 86.4951 75.0915 86.4951 76.1813C86.4951 77.3239 86.0996 78.4489 85.3086 79.5563C84.5176 80.6637 83.1025 81.8151 81.0635 83.0104C80.0439 83.5905 77.8643 84.6364 74.5244 86.1481C74.3662 87.0973 74.2871 88.0026 74.2871 88.8639C74.2871 90.112 74.4805 90.9821 74.8672 91.4743C75.2715 91.9665 75.8516 92.2125 76.6074 92.2125C77.3281 92.2125 78.1191 92.0104 78.9805 91.6061C80.1406 91.0612 81.8369 89.9538 84.0693 88.2838ZM74.8408 84.4606C77.6709 83.195 79.7979 81.8327 81.2217 80.3737C82.1885 79.3541 82.6719 78.3434 82.6719 77.3415C82.6719 76.5856 82.4697 75.9879 82.0654 75.5485C81.6787 75.0915 81.1689 74.8629 80.5361 74.8629C79.8857 74.8629 79.2529 75.109 78.6377 75.6012C77.8115 76.2516 77.1172 77.236 76.5547 78.5543C75.7461 80.4879 75.1748 82.4567 74.8408 84.4606ZM89.3955 78.8971L88.499 77.9743C90.749 75.8297 92.542 74.4059 93.8779 73.7028C95.2139 72.9997 96.3564 72.6481 97.3057 72.6481C97.6748 72.6481 97.9648 72.7272 98.1758 72.8854C98.3867 73.0436 98.4922 73.2282 98.4922 73.4391C98.4922 73.5973 98.4482 73.8786 98.3604 74.2829L97.1738 79.5827C98.9668 77.5963 101.217 75.7418 103.924 74.0192C105.365 73.1227 106.552 72.6745 107.483 72.6745C108.169 72.6745 108.705 72.8942 109.092 73.3336C109.479 73.7731 109.672 74.4059 109.672 75.2321C109.672 75.777 109.593 76.3922 109.435 77.0778C109.153 78.2204 108.415 80.7077 107.22 84.5397C106.095 88.1256 105.532 90.5075 105.532 91.6852C105.532 92.0368 105.585 92.3004 105.69 92.4762C105.796 92.652 105.945 92.7399 106.139 92.7399C106.648 92.7399 107.448 92.2477 108.538 91.2633C109.312 90.5602 110.085 89.9098 110.858 89.3122L111.518 90.2614C109.9 92.0543 108.222 93.4958 106.481 94.5856C105.374 95.2887 104.46 95.6403 103.739 95.6403C103.071 95.6403 102.553 95.3942 102.184 94.902C101.814 94.4274 101.63 93.6452 101.63 92.5553C101.63 90.9909 102.605 87.0973 104.557 80.8747C105.154 78.6598 105.453 77.3678 105.453 76.9987C105.453 76.4538 105.128 76.1813 104.478 76.1813C103.774 76.1813 102.869 76.5504 101.762 77.2887C100.109 78.3786 98.7295 79.6618 97.6221 81.1383C96.9189 82.0875 96.3301 83.5993 95.8555 85.6735L93.7197 94.8756H89.791C90.5293 92.2389 91.1709 89.7165 91.7158 87.3083L94.0625 77.2887C94.1504 76.8844 94.1943 76.5944 94.1943 76.4186C94.1943 75.944 94.0186 75.7067 93.667 75.7067C93.3857 75.7067 92.9814 75.8913 92.4541 76.2604C91.3643 76.9811 90.3447 77.86 89.3955 78.8971ZM120.825 68.6666L125.018 67.0583L123.119 74.4411H128.577L128.155 76.3131H122.697L120.377 85.1461C119.656 87.8004 119.296 89.6461 119.296 90.6833C119.296 91.1579 119.393 91.5006 119.586 91.7116C119.797 91.9225 120.078 92.028 120.43 92.028C120.975 92.028 121.81 91.7028 122.935 91.0524C124.411 90.1911 125.817 89.2155 127.153 88.1256L128.155 89.3385C124.306 92.2389 121.73 94.0143 120.43 94.6647C119.129 95.3151 118.083 95.6403 117.292 95.6403C116.642 95.6403 116.123 95.403 115.736 94.9284C115.367 94.4538 115.183 93.6803 115.183 92.6081C115.183 91.3424 115.517 89.4088 116.185 86.8073L118.9 76.3131H114.629L115.104 74.4411H119.349L120.825 68.6666ZM141.972 61.3893C142.517 61.3893 142.965 61.5739 143.316 61.943C143.668 62.2946 143.844 62.7516 143.844 63.3141C143.844 64.0875 143.571 64.7731 143.026 65.3708C142.499 65.9508 141.901 66.2409 141.233 66.2409C140.706 66.2409 140.267 66.0563 139.915 65.6872C139.563 65.318 139.388 64.8346 139.388 64.237C139.388 63.4459 139.643 62.778 140.152 62.2331C140.662 61.6706 141.269 61.3893 141.972 61.3893ZM131.583 78.8444L130.423 77.9479C132.181 76.0143 133.78 74.6432 135.222 73.8346C136.681 73.0084 137.92 72.5954 138.939 72.5954C139.502 72.5954 139.933 72.7184 140.231 72.9645C140.53 73.2106 140.68 73.5446 140.68 73.9665C140.68 74.4762 140.108 76.6383 138.966 80.4528C137.103 86.693 136.171 90.4547 136.171 91.7379C136.171 91.984 136.232 92.195 136.355 92.3708C136.479 92.529 136.61 92.6081 136.751 92.6081C137.313 92.6081 138.755 91.5182 141.075 89.3385L142.104 90.3405C139.695 92.6081 137.938 94.0583 136.83 94.6911C135.723 95.3239 134.817 95.6403 134.114 95.6403C133.499 95.6403 133.007 95.4469 132.638 95.0602C132.286 94.6735 132.11 94.1374 132.11 93.4518C132.11 91.2545 133.429 85.8844 136.065 77.3415C136.188 76.9372 136.25 76.5768 136.25 76.2604C136.25 75.9088 136.092 75.7331 135.775 75.7331C135.424 75.7331 135.02 75.8737 134.562 76.1549C134.123 76.4362 133.13 77.3327 131.583 78.8444ZM161.694 72.279L163.435 71.9098L161.457 78.5807C160.666 81.235 159.919 84.2936 159.216 87.7565C158.829 89.6374 158.636 90.8502 158.636 91.3952C158.636 91.9401 158.855 92.2125 159.295 92.2125C159.576 92.2125 160.024 92.028 160.64 91.6588C161.729 91.0084 162.775 90.1999 163.777 89.2331L164.621 90.2614C162.617 92.0895 161.334 93.1969 160.771 93.5836C159.646 94.3571 158.574 94.9284 157.555 95.2975C156.887 95.5436 156.236 95.6666 155.604 95.6666C155.146 95.6666 154.804 95.5612 154.575 95.3502C154.347 95.1393 154.232 94.8317 154.232 94.4274C154.232 94.1637 154.303 93.8034 154.443 93.3463L155.498 89.7604C153.986 91.5709 152.185 93.1266 150.093 94.4274C148.81 95.236 147.632 95.6403 146.56 95.6403C145.54 95.6403 144.758 95.2799 144.213 94.5592C143.475 93.5924 143.105 92.3268 143.105 90.7624C143.105 88.8991 143.598 86.8249 144.582 84.5397C145.584 82.2545 146.92 80.1803 148.59 78.317C150.26 76.4538 152.018 75.0827 153.863 74.2038C155.287 73.5358 157.115 73.2018 159.348 73.2018C159.91 73.2018 160.481 73.237 161.062 73.3073L161.694 72.279ZM158.425 76.3131C157.476 76.1198 156.676 76.0231 156.025 76.0231C154.443 76.0231 153.063 76.4625 151.886 77.3415C150.708 78.2028 149.609 79.7672 148.59 82.0348C147.588 84.2848 147.087 86.5348 147.087 88.7848C147.087 89.9801 147.289 90.8415 147.693 91.3688C148.098 91.8961 148.625 92.1598 149.275 92.1598C150.488 92.1598 151.789 91.5094 153.178 90.2086C154.566 88.8903 155.586 87.0006 156.236 84.5397L158.425 76.3131ZM177.356 88.5475L178.253 89.4967C176.882 91.0436 175.256 92.4586 173.375 93.7418C171.512 95.0075 169.974 95.6403 168.761 95.6403C168.216 95.6403 167.768 95.4293 167.416 95.0075C167.064 94.6032 166.889 94.0407 166.889 93.32C166.889 91.9137 167.434 88.9958 168.523 84.5661L171.371 72.9909C172.408 68.8073 173.278 66.0036 173.981 64.5797C175.071 62.4176 176.609 60.7389 178.596 59.5436C180.6 58.3483 182.709 57.7506 184.924 57.7506C185.68 57.7506 186.269 57.9352 186.69 58.3043C187.13 58.6559 187.35 59.0866 187.35 59.5963C187.35 60.1588 187.139 60.6247 186.717 60.9938C186.295 61.3454 185.68 61.5211 184.871 61.5211C184.344 61.5211 183.597 61.4333 182.63 61.2575C181.786 61.1168 181.004 61.0465 180.283 61.0465C179.562 61.0465 179.018 61.1959 178.648 61.4948C178.139 61.9166 177.673 62.8043 177.251 64.1579C176.847 65.5114 176.179 68.1833 175.247 72.1735L172.637 83.2213C171.336 88.7584 170.686 91.65 170.686 91.8961C170.686 92.4586 170.888 92.7399 171.292 92.7399C171.679 92.7399 172.241 92.5114 172.979 92.0543C174.438 91.1403 175.897 89.9713 177.356 88.5475ZM190.936 72.7008C192.5 72.7008 193.704 73.0084 194.548 73.6237C195.409 74.2213 195.84 74.9157 195.84 75.7067C195.84 76.1813 195.655 76.5944 195.286 76.9459C194.935 77.2975 194.504 77.4733 193.994 77.4733C193.66 77.4733 193.37 77.403 193.124 77.2624C192.878 77.1041 192.526 76.7262 192.069 76.1286C191.208 74.986 190.355 74.4147 189.512 74.4147C188.791 74.4147 188.149 74.6959 187.587 75.2584C187.042 75.8034 186.77 76.4889 186.77 77.3151C186.77 78.0358 186.945 78.7389 187.297 79.4245C187.648 80.0924 188.536 81.1823 189.96 82.694C191.911 84.7682 192.887 86.737 192.887 88.6002C192.887 90.4635 192.096 92.0983 190.514 93.5045C188.932 94.8932 186.893 95.5875 184.396 95.5875C182.305 95.5875 180.749 95.1657 179.729 94.3219C178.71 93.4606 178.2 92.4059 178.2 91.1579C178.2 90.5426 178.394 90.0329 178.78 89.6286C179.167 89.2243 179.642 89.0221 180.204 89.0221C180.696 89.0221 181.118 89.1891 181.47 89.5231C181.821 89.8395 181.997 90.2174 181.997 90.6569C181.997 90.8327 181.979 91.0612 181.944 91.3424C181.927 91.5709 181.918 91.7643 181.918 91.9225C181.918 92.5026 182.164 92.9948 182.656 93.3991C183.131 93.8034 183.781 94.0055 184.607 94.0055C185.557 94.0055 186.392 93.8473 187.112 93.5309C187.833 93.1969 188.396 92.7047 188.8 92.0543C189.204 91.3864 189.406 90.7272 189.406 90.0768C189.406 89.444 189.213 88.8112 188.826 88.1784C188.457 87.5456 187.613 86.4997 186.295 85.0407C184.467 83.0016 183.553 81.0416 183.553 79.1608C183.553 77.4381 184.247 75.9352 185.636 74.652C187.024 73.3512 188.791 72.7008 190.936 72.7008Z" fill="#004197"/>
</svg>
