<svg width="12" height="22" viewBox="0 0 12 22" fill="none" xmlns="http://www.w3.org/2000/svg">
<path d="M8.383 10.9979L0.440997 3.06194C0.301928 2.92241 0.191702 2.75685 0.116614 2.57472C0.0415255 2.3926 0.00304557 2.19746 0.00337057 2.00046C0.00369557 1.80346 0.042819 1.60846 0.118508 1.42658C0.194196 1.2447 0.304968 1.07951 0.444497 0.940437C0.584027 0.801367 0.749582 0.691141 0.931711 0.616053C1.11384 0.540965 1.30897 0.502485 1.50597 0.50281C1.70297 0.503135 1.89798 0.542258 2.07986 0.617947C2.26174 0.693635 2.42693 0.804407 2.566 0.943936L11.566 9.93594C11.8374 10.2091 11.9933 10.5762 12.0015 10.9611C12.0097 11.3461 11.8695 11.7195 11.61 12.0039L2.574 21.0579C2.43583 21.2014 2.27047 21.3159 2.08758 21.3947C1.90469 21.4736 1.70792 21.5153 1.50876 21.5173C1.30961 21.5193 1.11204 21.4816 0.927597 21.4064C0.743154 21.3313 0.575526 21.2201 0.434493 21.0795C0.29346 20.9389 0.181847 20.7715 0.106165 20.5873C0.0304833 20.4031 -0.00775149 20.2056 -0.00630827 20.0065C-0.00486505 19.8073 0.0362271 19.6104 0.114571 19.4273C0.192915 19.2442 0.306941 19.0785 0.449997 18.9399L8.383 10.9979Z" fill="#4A4B4D"/>
</svg>
