<svg width="13" height="22" viewBox="0 0 13 22" fill="none" xmlns="http://www.w3.org/2000/svg">
<path d="M3.61709 10.9979L11.5591 3.06194C11.84 2.78014 11.9974 2.39832 11.9967 2.00046C11.9961 1.6026 11.8374 1.2213 11.5556 0.940437C11.2738 0.659572 10.892 0.502153 10.4941 0.50281C10.0963 0.503466 9.71496 0.662144 9.43409 0.943936L0.434094 9.93594C0.162736 10.2091 0.0068214 10.5762 -0.00136921 10.9611C-0.00955983 11.3461 0.1306 11.7195 0.390093 12.0039L9.42609 21.0579C9.5637 21.2038 9.72913 21.3205 9.91263 21.4013C10.0961 21.4821 10.294 21.5252 10.4944 21.5283C10.6949 21.5313 10.8939 21.4941 11.0798 21.4189C11.2656 21.3437 11.4345 21.232 11.5764 21.0904C11.7184 20.9487 11.8305 20.7801 11.9061 20.5945C11.9818 20.4088 12.0195 20.2098 12.0169 20.0094C12.0144 19.8089 11.9716 19.611 11.8913 19.4273C11.8109 19.2436 11.6946 19.0779 11.5491 18.9399L3.61709 10.9979Z" fill="#4A4B4D"/>
</svg>
