<svg width="38" height="38" viewBox="0 0 38 38" fill="none" xmlns="http://www.w3.org/2000/svg">
<path d="M19 38C13.9609 38 9.12816 35.9982 5.56497 32.435C2.00178 28.8718 0 24.0391 0 19C0 13.9609 2.00178 9.12816 5.56497 5.56497C9.12816 2.00178 13.9609 0 19 0C24.0391 0 28.8718 2.00178 32.435 5.56497C35.9982 9.12816 38 13.9609 38 19C38 24.0391 35.9982 28.8718 32.435 32.435C28.8718 35.9982 24.0391 38 19 38Z" fill="#004197"/>
<path d="M18.9999 10.95C21.7859 10.95 22.1159 10.961 23.2169 11.011C23.8784 11.0193 24.5336 11.141 25.1539 11.371C25.604 11.5442 26.0128 11.81 26.3539 12.151C26.6949 12.4921 26.9607 12.9009 27.1339 13.351C27.3639 13.9713 27.4856 14.6265 27.4939 15.288C27.5439 16.388 27.5549 16.719 27.5549 19.505C27.5549 22.291 27.5439 22.621 27.4939 23.721C27.4857 24.3828 27.364 25.0384 27.1339 25.659C26.9607 26.1091 26.6949 26.5179 26.3539 26.859C26.0128 27.2 25.604 27.4657 25.1539 27.639C24.5336 27.869 23.8784 27.9904 23.2169 27.998C22.1169 28.048 21.7869 28.059 18.9999 28.059C16.2129 28.059 15.8839 28.048 14.7839 27.998C14.1214 27.9906 13.4652 27.8692 12.8439 27.639C12.394 27.4654 11.9854 27.1995 11.6444 26.8585C11.3034 26.5175 11.0375 26.1089 10.8639 25.659C10.6339 25.0384 10.5124 24.3828 10.5049 23.721C10.4549 22.621 10.4439 22.291 10.4439 19.505C10.4439 16.719 10.4549 16.389 10.5049 15.288C10.5125 14.6265 10.6339 13.9713 10.8639 13.351C11.0373 12.9007 11.3031 12.4917 11.6441 12.1504C11.9851 11.809 12.3938 11.5428 12.8439 11.369C13.4646 11.1391 14.1201 11.0173 14.7819 11.009C15.8819 10.959 16.2119 10.948 18.9979 10.948M18.9979 9.06799C16.1639 9.06799 15.8089 9.081 14.6979 9.131C13.8323 9.14857 12.9758 9.31256 12.1649 9.616C11.4719 9.88422 10.8425 10.2942 10.3171 10.8198C9.79174 11.3454 9.38192 11.9749 9.11392 12.668C8.80988 13.4787 8.64588 14.3353 8.62892 15.201C8.57792 16.314 8.56592 16.669 8.56592 19.501C8.56592 22.333 8.57792 22.69 8.62892 23.801C8.64588 24.6667 8.80988 25.5233 9.11392 26.334C9.38192 27.0271 9.79174 27.6566 10.3171 28.1822C10.8425 28.7078 11.4719 29.1178 12.1649 29.386C12.976 29.6889 13.8323 29.8529 14.6979 29.871C15.8109 29.921 16.1659 29.933 18.9979 29.933C21.8299 29.933 22.1869 29.921 23.2979 29.871C24.1635 29.853 25.0199 29.6891 25.8309 29.386C26.524 29.1176 27.1534 28.7076 27.6789 28.182C28.2045 27.6565 28.6145 27.0271 28.8829 26.334C29.1865 25.5231 29.3505 24.6667 29.3679 23.801C29.4189 22.688 29.4309 22.333 29.4309 19.501C29.4309 16.669 29.4189 16.312 29.3679 15.201C29.3505 14.3353 29.1865 13.4789 28.8829 12.668C28.6145 11.9749 28.2045 11.3455 27.6789 10.82C27.1534 10.2944 26.524 9.88437 25.8309 9.616C25.02 9.31245 24.1636 9.14846 23.2979 9.131C22.1849 9.081 21.8299 9.06799 18.9979 9.06799Z" fill="white"/>
<path d="M18.9999 14.147C17.9401 14.147 16.9042 14.4612 16.0231 15.05C15.142 15.6387 14.4552 16.4755 14.0497 17.4546C13.6442 18.4336 13.5381 19.5109 13.7448 20.5503C13.9515 21.5896 14.4618 22.5443 15.2112 23.2937C15.9605 24.043 16.9152 24.5533 17.9545 24.76C18.9939 24.9668 20.0712 24.8607 21.0503 24.4551C22.0293 24.0496 22.8661 23.3629 23.4549 22.4817C24.0436 21.6006 24.3579 20.5647 24.3579 19.505C24.3579 18.8014 24.2192 18.1046 23.95 17.4546C23.6807 16.8045 23.2861 16.2138 22.7885 15.7163C22.291 15.2188 21.7003 14.8241 21.0503 14.5548C20.4002 14.2856 19.7035 14.147 18.9999 14.147ZM18.9999 22.983C18.312 22.983 17.6395 22.779 17.0676 22.3969C16.4956 22.0147 16.0498 21.4715 15.7866 20.836C15.5234 20.2004 15.4545 19.5011 15.5887 18.8265C15.7229 18.1518 16.0541 17.5321 16.5405 17.0457C17.0269 16.5593 17.6467 16.228 18.3213 16.0938C18.996 15.9596 19.6953 16.0285 20.3308 16.2917C20.9663 16.555 21.5095 17.0008 21.8917 17.5727C22.2739 18.1447 22.4778 18.8171 22.4778 19.505C22.4778 19.9617 22.3879 20.414 22.2131 20.836C22.0383 21.2579 21.7821 21.6413 21.4592 21.9643C21.1362 22.2873 20.7528 22.5435 20.3308 22.7182C19.9088 22.893 19.4566 22.983 18.9999 22.983Z" fill="white"/>
<path d="M25.8219 13.935C25.8219 14.1826 25.7484 14.4247 25.6109 14.6306C25.4733 14.8365 25.2778 14.9969 25.049 15.0917C24.8202 15.1865 24.5685 15.2112 24.3256 15.1629C24.0828 15.1146 23.8597 14.9954 23.6846 14.8203C23.5095 14.6452 23.3902 14.4221 23.3419 14.1792C23.2936 13.9364 23.3184 13.6846 23.4132 13.4559C23.5079 13.2271 23.6684 13.0316 23.8743 12.894C24.0802 12.7564 24.3222 12.683 24.5699 12.683C24.9019 12.683 25.2204 12.8149 25.4552 13.0497C25.69 13.2845 25.8219 13.6029 25.8219 13.935Z" fill="white"/>
</svg>
