<svg width="38" height="39" viewBox="0 0 38 39" fill="none" xmlns="http://www.w3.org/2000/svg">
<path d="M19 38.505C13.9609 38.505 9.12816 36.5032 5.56497 32.94C2.00178 29.3768 0 24.5441 0 19.505C0 14.4659 2.00178 9.63317 5.56497 6.06998C9.12816 2.50679 13.9609 0.505005 19 0.505005C24.0391 0.505005 28.8718 2.50679 32.435 6.06998C35.9982 9.63317 38 14.4659 38 19.505C38 24.5441 35.9982 29.3768 32.435 32.94C28.8718 36.5032 24.0391 38.505 19 38.505Z" fill="#004197"/>
<path d="M13.3079 15.192H9.3689V27.916H13.3079V15.192Z" fill="white"/>
<path d="M11.32 13.525C11.7852 13.5288 12.241 13.3943 12.6296 13.1386C13.0182 12.8829 13.3221 12.5175 13.5028 12.0888C13.6834 11.6601 13.7326 11.1874 13.6442 10.7307C13.5557 10.274 13.3336 9.85384 13.006 9.52356C12.6784 9.19329 12.2601 8.96776 11.8041 8.87561C11.3481 8.78346 10.875 8.82884 10.4449 9.00598C10.0147 9.18313 9.64691 9.48405 9.38806 9.87058C9.1292 10.2571 8.991 10.7118 8.99098 11.177C8.98859 11.7972 9.2326 12.3929 9.66934 12.8332C10.1061 13.2735 10.6998 13.5224 11.32 13.525Z" fill="white"/>
<path d="M19.6039 21.236C19.6039 19.448 20.4269 18.382 22.0039 18.382C23.4519 18.382 24.1479 19.405 24.1479 21.236V27.915H28.0679V19.859C28.0679 16.451 26.1359 14.803 23.4379 14.803C22.6719 14.7921 21.9161 14.9798 21.2442 15.3478C20.5723 15.7159 20.0072 16.2516 19.6039 16.903V15.19H15.8259V27.913H19.6039V21.236Z" fill="white"/>
</svg>
