<svg width="22" height="22" viewBox="0 0 22 22" fill="none" xmlns="http://www.w3.org/2000/svg">
<path d="M2.76705 2.76705C4.08815 1.44648 5.77112 0.547245 7.60321 0.183021C9.4353 -0.181203 11.3342 0.0059393 13.06 0.720789C14.7857 1.43564 16.2608 2.6461 17.2987 4.19915C18.3366 5.7522 18.8907 7.57811 18.8911 9.44605C18.8974 11.7293 18.0704 13.9363 16.5651 15.6531L21.8111 20.9001C21.8728 20.9595 21.9221 21.0307 21.9561 21.1094C21.99 21.1882 22.0079 21.2729 22.0088 21.3586C22.0096 21.4444 21.9933 21.5294 21.9609 21.6088C21.9284 21.6881 21.8805 21.7603 21.8199 21.8209C21.7593 21.8815 21.6871 21.9294 21.6078 21.9619C21.5284 21.9943 21.4434 22.0106 21.3576 22.0098C21.2719 22.0089 21.1872 21.991 21.1084 21.9571C21.0297 21.9231 20.9585 21.8738 20.8991 21.8121L15.6531 16.5661C14.2863 17.7578 12.6054 18.531 10.8111 18.7932C9.01674 19.0555 7.18486 18.7957 5.5342 18.0449C3.88354 17.2941 2.48387 16.0841 1.50236 14.5593C0.52084 13.0345 -0.00103673 11.2594 -0.00094575 9.44605C-0.00412582 8.20505 0.238882 6.97573 0.714012 5.82928C1.18914 4.68282 1.88695 3.642 2.76705 2.76705ZM3.67905 15.2121C4.81932 16.3512 6.2717 17.1267 7.85262 17.4405C9.43353 17.7544 11.072 17.5925 12.5609 16.9753C14.0499 16.3581 15.3224 15.3134 16.2177 13.9732C17.113 12.6329 17.5908 11.0573 17.5908 9.44555C17.5908 7.83378 17.113 6.25819 16.2177 4.91794C15.3224 3.57769 14.0499 2.53296 12.5609 1.91579C11.072 1.29862 9.43353 1.13673 7.85262 1.45058C6.2717 1.76443 4.81932 2.53993 3.67905 3.67905C2.15187 5.20958 1.29419 7.28342 1.29419 9.44555C1.29419 11.6077 2.15187 13.6815 3.67905 15.2121Z" fill="#222222"/>
</svg>
