<svg width="38" height="39" viewBox="0 0 38 39" fill="none" xmlns="http://www.w3.org/2000/svg">
<path d="M19 38.505C13.9609 38.505 9.12816 36.5032 5.56497 32.94C2.00178 29.3768 0 24.5441 0 19.505C0 14.4659 2.00178 9.63317 5.56497 6.06998C9.12816 2.50679 13.9609 0.505005 19 0.505005C24.0391 0.505005 28.8718 2.50679 32.435 6.06998C35.9982 9.63317 38 14.4659 38 19.505C38 24.5441 35.9982 29.3768 32.435 32.94C28.8718 36.5032 24.0391 38.505 19 38.505Z" fill="#004197"/>
<path d="M8.89209 25.877C10.7153 27.0476 12.8257 27.6932 14.9918 27.743C17.1578 27.7928 19.2957 27.2448 21.1707 26.1591C23.0457 25.0735 24.5853 23.4923 25.6206 21.589C26.6558 19.6857 27.1466 17.5339 27.0391 15.37C27.8516 14.781 28.5523 14.0515 29.1081 13.216C28.3515 13.5526 27.5485 13.7734 26.7261 13.871C27.5928 13.351 28.2407 12.5335 28.5491 11.571C27.7354 12.0553 26.8449 12.3969 25.9161 12.581C25.2903 11.9126 24.4611 11.4698 23.5575 11.3217C22.6539 11.1735 21.7267 11.3283 20.9202 11.7619C20.1137 12.1954 19.4732 12.8835 19.0984 13.719C18.7237 14.5544 18.6357 15.4903 18.8481 16.381C17.1977 16.2978 15.5833 15.8677 14.1103 15.1187C12.6372 14.3697 11.3386 13.3186 10.2991 12.034C9.7685 12.95 9.60585 14.0334 9.84406 15.0648C10.0823 16.0962 10.7036 16.9985 11.5821 17.589C10.9231 17.568 10.2788 17.3893 9.70309 17.068C9.69036 18.0363 10.0156 18.9788 10.6229 19.7332C11.2301 20.4876 12.0814 21.0066 13.0301 21.201C12.4196 21.3671 11.7792 21.391 11.1581 21.271C11.4212 22.0969 11.9363 22.8197 12.6311 23.338C13.3259 23.8563 14.1655 24.1441 15.0321 24.161C14.1717 24.8365 13.1865 25.3358 12.1329 25.6303C11.0794 25.9247 9.97809 26.0086 8.89209 25.877Z" fill="white"/>
</svg>
